<?xml version="1.0" encoding="UTF-8" standalone="no"?>
<!DOCTYPE svg PUBLIC "-//W3C//DTD SVG 1.1//EN" "http://www.w3.org/Graphics/SVG/1.1/DTD/svg11.dtd">
<svg width="100%" height="100%" viewBox="0 0 1944 645" version="1.1" xmlns="http://www.w3.org/2000/svg" xmlns:xlink="http://www.w3.org/1999/xlink" xml:space="preserve" xmlns:serif="http://www.serif.com/" style="fill-rule:evenodd;clip-rule:evenodd;stroke-miterlimit:1.5;">
    <g transform="matrix(1,0,0,1,-13708.3,-917.745)">
        <g transform="matrix(1,0,0,1,-0.648294,0)">
            <g transform="matrix(11.9744,0,0,11.9744,1685.5,-11983.2)">
                <path d="M1014.1,1103.31L1029.1,1119.86L1029.1,1120.16L1023.55,1120.16L1008.7,1103.61L1008.7,1120.16L1004.1,1120.16L1004.1,1087.76L1008.7,1087.76L1008.7,1103.21L1023.25,1087.76L1028.5,1087.76L1028.5,1088.06L1014.1,1103.31Z" style="fill:rgb(247,109,34);fill-rule:nonzero;"/>
            </g>
        </g>
        <g transform="matrix(1,0,0,1,-0.648294,0)">
            <g transform="matrix(11.9744,0,0,11.9744,1685.5,-11983.2)">
                <path d="M1046.3,1120.76C1043.3,1120.76 1040.8,1120.18 1038.8,1119.01C1036.8,1117.85 1035.32,1116.24 1034.35,1114.19C1033.38,1112.14 1032.9,1109.81 1032.9,1107.21L1032.9,1087.76L1037.5,1087.76L1037.5,1106.21C1037.5,1113.25 1040.53,1116.76 1046.6,1116.76C1049.7,1116.76 1051.94,1115.87 1053.32,1114.09C1054.71,1112.3 1055.4,1109.78 1055.4,1106.51L1055.4,1087.76L1060,1087.76L1060,1107.06C1060,1110.23 1059.4,1112.84 1058.2,1114.89C1057,1116.94 1055.37,1118.43 1053.32,1119.36C1051.27,1120.3 1048.93,1120.76 1046.3,1120.76Z" style="fill:rgb(247,109,34);fill-rule:nonzero;"/>
            </g>
        </g>
        <g transform="matrix(1,0,0,1,-0.648294,0)">
            <g transform="matrix(11.9744,0,0,11.9744,1685.5,-11983.2)">
                <path d="M1127.45,1119.86L1127.45,1120.16L1122.15,1120.16L1112.8,1107.51L1108,1107.51L1108,1120.16L1103.4,1120.16L1103.4,1087.76L1113.95,1087.76C1116.48,1087.76 1118.62,1088.16 1120.37,1088.96C1122.12,1089.76 1123.44,1090.88 1124.32,1092.31C1125.21,1093.75 1125.65,1095.41 1125.65,1097.31C1125.65,1098.85 1125.36,1100.26 1124.77,1101.56C1124.19,1102.86 1123.32,1103.99 1122.15,1104.94C1120.98,1105.89 1119.53,1106.58 1117.8,1107.01L1127.45,1119.86ZM1108,1103.71L1113.25,1103.71C1115.75,1103.71 1117.64,1103.17 1118.92,1102.09C1120.21,1101 1120.85,1099.48 1120.85,1097.51C1120.85,1095.61 1120.26,1094.16 1119.07,1093.16C1117.89,1092.16 1116.15,1091.66 1113.85,1091.66L1108,1091.66L1108,1103.71Z" style="fill-rule:nonzero;"/>
            </g>
        </g>
        <g transform="matrix(1,0,0,1,-0.648294,0)">
            <g transform="matrix(11.9744,0,0,11.9744,1685.5,-11983.2)">
                <rect x="1132.45" y="1087.76" width="4.6" height="32.4" style="fill-rule:nonzero;"/>
            </g>
        </g>
        <g transform="matrix(1,0,0,1,-0.648294,0)">
            <g transform="matrix(11.9744,0,0,11.9744,1685.5,-11983.2)">
                <path d="M1154.3,1120.76C1151.96,1120.76 1149.82,1120.44 1147.85,1119.79C1145.88,1119.14 1144.15,1118.23 1142.65,1117.06L1144.85,1113.76C1146.18,1114.8 1147.69,1115.57 1149.37,1116.09C1151.06,1116.6 1152.65,1116.86 1154.15,1116.86C1156.55,1116.86 1158.37,1116.43 1159.62,1115.56C1160.87,1114.7 1161.5,1113.38 1161.5,1111.61C1161.5,1110.58 1161.27,1109.73 1160.82,1109.06C1160.37,1108.4 1159.64,1107.79 1158.62,1107.24C1157.61,1106.69 1156.15,1106.08 1154.25,1105.41L1153.4,1105.11C1151.3,1104.38 1149.6,1103.65 1148.3,1102.94C1147,1102.22 1145.95,1101.28 1145.15,1100.11C1144.35,1098.95 1143.95,1097.48 1143.95,1095.71C1143.95,1093.85 1144.46,1092.27 1145.47,1090.99C1146.49,1089.7 1147.83,1088.75 1149.5,1088.11C1151.16,1087.48 1152.95,1087.16 1154.85,1087.16C1156.85,1087.16 1158.74,1087.41 1160.52,1087.91C1162.31,1088.41 1164.05,1089.23 1165.75,1090.36L1163.65,1093.66C1162.18,1092.73 1160.77,1092.05 1159.4,1091.64C1158.03,1091.22 1156.5,1091.01 1154.8,1091.01C1153.03,1091.01 1151.57,1091.38 1150.4,1092.11C1149.23,1092.85 1148.65,1093.98 1148.65,1095.51C1148.65,1096.31 1148.84,1097.01 1149.22,1097.61C1149.61,1098.21 1150.27,1098.78 1151.22,1099.31C1152.17,1099.85 1153.5,1100.41 1155.2,1101.01L1156.05,1101.31C1158.28,1102.08 1160.07,1102.8 1161.4,1103.49C1162.73,1104.17 1163.88,1105.15 1164.85,1106.44C1165.82,1107.72 1166.3,1109.38 1166.3,1111.41C1166.3,1113.45 1165.82,1115.15 1164.85,1116.54C1163.88,1117.92 1162.5,1118.97 1160.7,1119.69C1158.9,1120.4 1156.77,1120.76 1154.3,1120.76Z" style="fill-rule:nonzero;"/>
            </g>
        </g>
        <g transform="matrix(1,0,0,1,-0.648294,0)">
            <g transform="matrix(0.954727,0,0,0.954727,13060.3,-240.96)">
                <path d="M1783.41,1417.16C1816.96,1451.25 1837.67,1498.01 1837.67,1549.57C1837.67,1653.77 1753.08,1738.36 1648.88,1738.36C1598.32,1738.36 1552.37,1718.44 1518.47,1686.03" style="fill:rgb(224,122,67);fill-opacity:0;stroke:rgb(255,116,0);stroke-width:45.11px;"/>
            </g>
        </g>
        <g transform="matrix(1,0,0,1,-0.648294,0)">
            <g transform="matrix(-0.954727,0,0,-0.954727,16209,2718.09)">
                <path d="M1779.07,1412.83C1812.62,1446.91 1837.67,1498.01 1837.67,1549.57C1837.67,1653.77 1753.08,1738.36 1648.88,1738.36C1598.32,1738.36 1547.68,1713.9 1513.78,1681.49" style="fill-opacity:0;stroke:black;stroke-width:45.11px;"/>
            </g>
        </g>
        <g transform="matrix(1,0,0,1,-0.648294,0)">
            <g transform="matrix(6.03647e-17,-0.98583,20.4313,1.25105e-15,-15599.9,12428.2)">
                <path d="M11077.1,1434.51L11021.8,1434.51L11022.1,1464.93L11077.5,1467.59L11077.1,1434.51Z" style="fill:rgb(247,109,34);"/>
            </g>
        </g>
        <g transform="matrix(1,0,0,1,-0.648294,0)">
            <g transform="matrix(6.02583e-17,-0.984093,22.8239,1.39756e-15,-17851.4,11818.7)">
                <path d="M11077.1,1437.43L11021.8,1435.02L11021.8,1467.93L11077.1,1467.93L11077.1,1437.43Z"/>
            </g>
        </g>
    </g>
</svg>
